# xmcd
#
# Track frame offsets: 
#        150
#        17554
#        34552
#        59883
#        82385
#        107063
#        132045
#        147259
#        162338
#        183269
#        208421
#        222425
#        252369
#
# Disc length: 3590 seconds
#
# Revision: 0
# Processed by: cddbd v1.5.2PL0 Copyright (c) Steve Scherf et al.
# Submitted via: ExactAudioCopy v0.99pb4
#
DISCID=c60e040d
DTITLE=Gary Edmonds and the Bridge - Leavin' Town
DYEAR=2000
DGENRE=Blues
TTITLE0=The Bridge
TTITLE1=Sick and Tired (What you gonna go?)
TTITLE2=Leavin' Town
TTITLE3=Woke Up this Morning
TTITLE4=Uncaring Woman
TTITLE5=24 Hours
TTITLE6=Runnin' 'Round in Circles
TTITLE7=You Best Be Glad
TTITLE8=I Wanna Know
TTITLE9=Shakey Ground
TTITLE10=Key to the Highway
TTITLE11=When Push Comes to Shove
TTITLE12=Grandpa's Song
EXTD=
EXTT0=
EXTT1=
EXTT2=
EXTT3=
EXTT4=
EXTT5=
EXTT6=
EXTT7=
EXTT8=
EXTT9=
EXTT10=
EXTT11=
EXTT12=
PLAYORDER=
